<svg width="24" height="24" viewBox="0 0 24 24" fill="none" xmlns="http://www.w3.org/2000/svg">
<circle cx="12" cy="12" r="12" fill="#000"/>
<path fill-rule="evenodd" clip-rule="evenodd" d="M16.8714 17.2133V17.2119L16.8841 17.1823L19 6.77451V6.74147C19 6.48196 18.9012 6.2555 18.6881 6.1199C18.5012 6.00081 18.286 5.99255 18.135 6.00357C17.9945 6.01607 17.8558 6.04378 17.7215 6.08617C17.6642 6.104 17.6078 6.12421 17.5522 6.14674L17.543 6.15018L5.74629 10.665L5.74276 10.6664C5.70662 10.6776 5.67146 10.6917 5.63763 10.7084C5.55378 10.7453 5.4733 10.789 5.39704 10.8392C5.24535 10.9411 4.95678 11.1806 5.00546 11.5606C5.04568 11.8758 5.26793 12.0754 5.41821 12.1794C5.50671 12.2403 5.60212 12.2912 5.70255 12.3308L5.72512 12.3405L5.73218 12.3425L5.73712 12.3446L7.80155 13.0226C7.79402 13.1493 7.80743 13.2766 7.84177 13.4046L8.87539 17.2311C8.93186 17.4397 9.05387 17.6258 9.2243 17.7633C9.39473 17.9007 9.60501 17.9827 9.82561 17.9975C10.0462 18.0124 10.266 17.9595 10.4542 17.8463C10.6424 17.733 10.7896 17.5651 10.8749 17.3661L12.4892 15.6824L15.2613 17.7557L15.3008 17.7722C15.5527 17.8796 15.7876 17.9133 16.0028 17.8851C16.218 17.8562 16.3888 17.7681 16.5172 17.6682C16.6657 17.5508 16.7841 17.4011 16.8629 17.2311L16.8685 17.2194L16.8707 17.2153L16.8714 17.2133ZM8.86481 13.1417C8.85336 13.0992 8.85608 13.0543 8.87258 13.0135C8.88907 12.9726 8.91848 12.938 8.95653 12.9145L15.9563 8.57797C15.9563 8.57797 16.3683 8.33361 16.3535 8.57797C16.3535 8.57797 16.4269 8.62065 16.206 8.82096C15.9972 9.01163 11.2171 13.5141 10.7331 13.9698C10.7068 13.9957 10.6881 14.028 10.6788 14.0634L9.89844 16.9682L8.86481 13.1417Z" fill="white"/>
</svg>
