<svg width="24" height="24" viewBox="0 0 24 24" fill="none" xmlns="http://www.w3.org/2000/svg">
<circle cx="12" cy="12" r="12" fill="#000"/>
<path d="M19.003 16.2853H17.2915C16.6442 16.2853 16.4493 15.7611 15.289 14.6001C14.275 13.6228 13.8468 13.5013 13.5903 13.5013C13.2355 13.5013 13.1388 13.5988 13.1388 14.0871V15.6261C13.1388 16.0423 13.0037 16.2861 11.9163 16.2861C10.8612 16.2152 9.83812 15.8947 8.93123 15.351C8.02433 14.8072 7.25959 14.0558 6.7 13.1586C5.37176 11.5046 4.44731 9.56373 4 7.49009C4 7.23359 4.0975 7.00109 4.5865 7.00109H6.2965C6.736 7.00109 6.89425 7.19684 7.06675 7.64909C7.897 10.0926 9.31375 12.2181 9.889 12.2181C10.1095 12.2181 10.2055 12.1206 10.2055 11.5708V9.05384C10.1328 7.90559 9.523 7.80884 9.523 7.39334C9.53071 7.28372 9.58086 7.18143 9.66278 7.10819C9.7447 7.03495 9.85195 6.99653 9.96175 7.00109H12.6497C13.0173 7.00109 13.1388 7.18409 13.1388 7.62359V11.0211C13.1388 11.3878 13.2963 11.5093 13.4073 11.5093C13.6278 11.5093 13.7972 11.3878 14.2015 10.9843C15.0677 9.92734 15.7756 8.75003 16.303 7.48934C16.3567 7.33782 16.4587 7.20809 16.5932 7.12004C16.7277 7.03198 16.8874 6.99047 17.0477 7.00184H18.7585C19.2715 7.00184 19.3802 7.25834 19.2715 7.62434C18.6491 9.01807 17.8792 10.3411 16.975 11.5708C16.7905 11.8521 16.717 11.9983 16.975 12.3283C17.1445 12.5848 17.7445 13.0858 18.1473 13.5621C18.7338 14.1471 19.2205 14.8236 19.5887 15.5646C19.7358 16.0416 19.4913 16.2853 19.003 16.2853Z" fill="white"/>
</svg>
