<svg width="24" height="24" viewBox="0 0 24 24" fill="none" xmlns="http://www.w3.org/2000/svg">
<circle cx="12" cy="12" r="12" fill="#000"/>
<path d="M17.2876 6.68254C16.5999 5.98812 15.7809 5.43751 14.8782 5.06281C13.9756 4.68811 13.0074 4.4968 12.0301 4.50004C7.9351 4.50004 4.5976 7.83754 4.5976 11.9325C4.5976 13.245 4.9426 14.52 5.5876 15.645L4.5376 19.5L8.4751 18.465C9.5626 19.0575 10.7851 19.3725 12.0301 19.3725C16.1251 19.3725 19.4626 16.035 19.4626 11.94C19.4626 9.95254 18.6901 8.08504 17.2876 6.68254ZM12.0301 18.1125C10.9201 18.1125 9.8326 17.8125 8.8801 17.25L8.6551 17.115L6.3151 17.73L6.9376 15.45L6.7876 15.2175C6.17076 14.2328 5.84329 13.0945 5.8426 11.9325C5.8426 8.52754 8.6176 5.75254 12.0226 5.75254C13.6726 5.75254 15.2251 6.39754 16.3876 7.56754C16.9633 8.14044 17.4195 8.82195 17.7298 9.57254C18.0401 10.3231 18.1982 11.1279 18.1951 11.94C18.2101 15.345 15.4351 18.1125 12.0301 18.1125ZM15.4201 13.4925C15.2326 13.4025 14.3176 12.9525 14.1526 12.885C13.9801 12.825 13.8601 12.795 13.7326 12.975C13.6051 13.1625 13.2526 13.5825 13.1476 13.7025C13.0426 13.83 12.9301 13.845 12.7426 13.7475C12.5551 13.6575 11.9551 13.455 11.2501 12.825C10.6951 12.33 10.3276 11.7225 10.2151 11.535C10.1101 11.3475 10.2001 11.25 10.2976 11.1525C10.3801 11.07 10.4851 10.935 10.5751 10.83C10.6651 10.725 10.7026 10.6425 10.7626 10.5225C10.8226 10.395 10.7926 10.29 10.7476 10.2C10.7026 10.11 10.3276 9.19504 10.1776 8.82004C10.0276 8.46004 9.8701 8.50504 9.7576 8.49754H9.3976C9.2701 8.49754 9.0751 8.54254 8.9026 8.73004C8.7376 8.91754 8.2576 9.36754 8.2576 10.2825C8.2576 11.1975 8.9251 12.0825 9.0151 12.2025C9.1051 12.33 10.3276 14.205 12.1876 15.0075C12.6301 15.2025 12.9751 15.315 13.2451 15.3975C13.6876 15.54 14.0926 15.5175 14.4151 15.4725C14.7751 15.42 15.5176 15.0225 15.6676 14.5875C15.8251 14.1525 15.8251 13.785 15.7726 13.7025C15.7201 13.62 15.6076 13.5825 15.4201 13.4925Z" fill="white"/>
</svg>
