<svg width="120" height="113" viewBox="0 0 120 113" fill="none" xmlns="http://www.w3.org/2000/svg">
<g clip-path="url(#clip0_48_29)">
<mask id="mask0_48_29" style="mask-type:luminance" maskUnits="userSpaceOnUse" x="-1" y="-1" width="122" height="115">
<path d="M120.022 -0.0959473H-0.331421V113.28H120.022V-0.0959473Z" fill="white"/>
</mask>
<g mask="url(#mask0_48_29)">
<path d="M20.4339 70.0796L0.750048 104.502H119.246L99.7754 70.4459M85.7212 45.8651L81.8358 39.0756C74.5594 26.3338 67.2801 13.6023 59.9978 0.880859L38.2645 38.8924L34.1873 46.0264M0.222412 112.077H119.769" stroke="#fff" stroke-width="2"/>
</g>
<path d="M13.7316 64.1492L13.7621 63.6041C12.9821 63.5729 12.2186 63.3694 11.5265 63.0083C10.8344 62.6472 10.2308 62.1373 9.75903 61.5153C8.79807 60.2919 8.2952 58.7709 8.33747 57.2158C8.31972 56.4347 8.46837 55.6588 8.77353 54.9395C9.09059 54.2432 9.52416 53.6062 10.0556 53.0557C10.602 52.4709 11.2662 52.0085 12.0042 51.6989C12.7423 51.3892 13.5375 51.2393 14.3377 51.2592C15.3147 51.2443 16.28 51.4737 17.1459 51.9263C17.9724 52.3652 18.6733 53.0076 19.1823 53.7927L19.6184 53.4656C19.0578 52.611 18.2916 51.9108 17.3901 51.4292C16.4841 50.952 15.4704 50.7162 14.4467 50.7446C13.5519 50.7352 12.6636 50.8981 11.8303 51.2243C11.0088 51.5319 10.27 52.026 9.67182 52.6676C9.0954 53.2731 8.62119 53.9683 8.2677 54.7259C7.94243 55.5178 7.78504 56.3686 7.80547 57.2245C7.77209 58.9099 8.32203 60.5551 9.36222 61.8816C9.88231 62.5526 10.5412 63.1034 11.2938 63.4963C12.0464 63.8891 12.875 64.1148 13.7228 64.1579L13.7316 64.1492ZM14.7738 64.1492C15.6663 64.1035 16.5402 63.8765 17.3422 63.482C18.2335 63.0236 19.0032 62.36 19.5879 61.5459L19.1911 61.2057C18.6823 61.9158 18.0186 62.5008 17.2502 62.9163C16.4819 63.3318 15.629 63.567 14.7563 63.6041L14.7738 64.1492Z" fill="#fff"/>
<path d="M13.7316 64.1492L13.7621 63.6041C12.9821 63.5729 12.2186 63.3694 11.5265 63.0083C10.8344 62.6472 10.2308 62.1373 9.75905 61.5153C8.79809 60.2919 8.29521 58.7709 8.33748 57.2158C8.32014 56.4347 8.46877 55.6589 8.77355 54.9395C9.0906 54.2432 9.52417 53.6062 10.0556 53.0557C10.6021 52.4709 11.2662 52.0085 12.0042 51.6989C12.7423 51.3892 13.5376 51.2393 14.3377 51.2592C15.3147 51.2443 16.28 51.4737 17.1459 51.9263C17.9724 52.3652 18.6733 53.0076 19.1824 53.7927L19.6184 53.4656C19.0578 52.611 18.2917 51.9108 17.3901 51.4292C16.4841 50.952 15.4704 50.7162 14.4467 50.7446C13.5519 50.7352 12.6636 50.8981 11.8303 51.2243C11.0155 51.533 10.2829 52.0254 9.68928 52.6633C9.11295 53.2672 8.63871 53.9609 8.28516 54.7171C7.95989 55.5091 7.80249 56.3599 7.82293 57.2158C7.79027 58.9011 8.34013 60.546 9.37967 61.8729C9.89977 62.5439 10.5586 63.0947 11.3112 63.4876C12.0638 63.8804 12.8924 64.1061 13.7403 64.1492H13.7316ZM14.7738 64.1492C15.6663 64.1035 16.5402 63.8765 17.3422 63.482C18.2335 63.0236 19.0032 62.36 19.5879 61.5459L19.1911 61.2057C18.6823 61.9158 18.0186 62.5008 17.2503 62.9163C16.4819 63.3318 15.6291 63.567 14.7563 63.6041L14.7738 64.1492Z" stroke="#fff" stroke-width="1.01"/>
<path d="M30.52 52.3188C30.52 52.3885 30.7206 53.0426 31.1174 54.2898C31.5142 55.5369 31.9895 56.8713 32.4517 58.3452C32.914 59.819 33.5768 61.7639 34.3878 64.184H35.1248L30.5897 50.6923H30.4502L25.9457 64.184H26.6521L30.52 52.3188ZM30.1929 60.351H29.5955L30.629 64.184H31.2395L30.1929 60.351Z" fill="#fff"/>
<path d="M30.52 52.3188C30.52 52.3885 30.7206 53.0426 31.1174 54.2898C31.5142 55.5369 31.9895 56.8756 32.4517 58.3452C32.914 59.8147 33.5768 61.7639 34.3878 64.1884H35.1248L30.5897 50.6923H30.4502L25.9457 64.1884H26.6521L30.52 52.3188ZM30.1929 60.351H29.5955L30.6203 64.1884H31.2395L30.1929 60.351Z" stroke="#fff" stroke-width="1.01"/>
<path d="M51.3507 64.184V50.6923H50.7838L46.397 56.989L43.1527 52.7112L42.7167 53.0252L46.4188 58.0574L50.8231 51.8217V64.184H51.3507ZM41.9143 64.184V51.8565L42.0364 52.2272L42.612 51.8129L41.9143 50.6923H41.3649V64.184H41.9143Z" fill="#fff"/>
<path d="M51.3507 64.1884V50.6923H50.7838L46.397 56.989L43.1527 52.7112L42.7167 53.0296L46.4188 58.0574L50.8231 51.8217V64.1884H51.3507ZM41.9143 64.1884V51.8565L42.0364 52.2272L42.612 51.8129L41.9143 50.6923H41.3649V64.1884H41.9143Z" stroke="#fff" stroke-width="1.01"/>
<path d="M62.7885 64.1492L62.8191 63.6041C62.039 63.5729 61.2756 63.3694 60.5835 63.0083C59.8914 62.6472 59.2878 62.1373 58.816 61.5153C57.8538 60.2923 57.3494 58.7714 57.3901 57.2158C57.3723 56.4347 57.521 55.6588 57.8262 54.9395C58.1432 54.2432 58.5768 53.6062 59.1082 53.0557C59.6547 52.4709 60.3188 52.0085 61.0568 51.6989C61.7949 51.3892 62.5902 51.2393 63.3903 51.2592C64.3673 51.2443 65.3326 51.4737 66.1986 51.9263C67.025 52.3652 67.7259 53.0076 68.235 53.7927L68.671 53.4656C68.1104 52.611 67.3443 51.9108 66.4428 51.4292C65.5367 50.952 64.523 50.7162 63.4993 50.7446C62.6045 50.7352 61.7163 50.8981 60.883 51.2243C60.0686 51.5318 59.336 52.0227 58.7419 52.6589C58.1655 53.2644 57.6913 53.9595 57.3378 54.7171C57.0125 55.5091 56.8551 56.3599 56.8755 57.2158C56.8404 58.9015 57.3905 60.5472 58.4323 61.8729C58.9524 62.5439 59.6113 63.0947 60.3639 63.4876C61.1165 63.8804 61.945 64.1061 62.7929 64.1492H62.7885ZM63.8307 64.1492C64.7235 64.1046 65.5976 63.8775 66.3991 63.482C67.2913 63.0247 68.0612 62.3609 68.6449 61.5459L68.248 61.2057C67.7393 61.9158 67.0756 62.5008 66.3072 62.9163C65.5389 63.3318 64.686 63.567 63.8133 63.6041L63.8307 64.1492Z" fill="#fff"/>
<path d="M62.7885 64.1492L62.8191 63.6041C62.039 63.5729 61.2756 63.3694 60.5835 63.0083C59.8914 62.6472 59.2878 62.1373 58.816 61.5153C57.8538 60.2923 57.3494 58.7714 57.3901 57.2158C57.3727 56.4347 57.5214 55.6589 57.8262 54.9395C58.1432 54.2432 58.5768 53.6062 59.1082 53.0557C59.6547 52.4709 60.3188 52.0085 61.0568 51.6989C61.7949 51.3892 62.5902 51.2393 63.3903 51.2592C64.3673 51.2443 65.3326 51.4737 66.1986 51.9263C67.025 52.3652 67.7259 53.0076 68.235 53.7927L68.671 53.4656C68.1105 52.611 67.3443 51.9108 66.4428 51.4292C65.5367 50.952 64.523 50.7162 63.4993 50.7446C62.6045 50.7352 61.7163 50.8981 60.883 51.2243C60.0682 51.533 59.3355 52.0254 58.7419 52.6633C58.1656 53.2672 57.6913 53.9609 57.3378 54.7171C57.0125 55.5091 56.8551 56.3599 56.8755 57.2158C56.8411 58.9013 57.3911 60.5469 58.4323 61.8729C58.9524 62.5439 59.6113 63.0947 60.3639 63.4876C61.1165 63.8804 61.945 64.1061 62.7929 64.1492H62.7885ZM63.8307 64.1492C64.7235 64.1046 65.5976 63.8775 66.3991 63.482C67.2913 63.0247 68.0612 62.3609 68.6449 61.5459L68.248 61.2057C67.7393 61.9158 67.0756 62.5008 66.3072 62.9163C65.5389 63.3318 64.686 63.567 63.8133 63.6041L63.8307 64.1492Z" stroke="#fff" stroke-width="1.01"/>
<path d="M79.577 52.3188C79.577 52.3885 79.7776 53.0426 80.1744 54.2898C80.5712 55.5369 81.0465 56.8713 81.5088 58.3452C81.971 59.819 82.6338 61.7639 83.4449 64.184H84.1818L79.6468 50.6923H79.5072L75.0071 64.184H75.7048L79.577 52.3188ZM79.2674 60.351H78.6526L79.6773 64.184H80.2965L79.2674 60.351Z" fill="#fff"/>
<path d="M79.577 52.3188C79.577 52.3885 79.7776 53.0426 80.1744 54.2898C80.5712 55.5369 81.0465 56.8756 81.5088 58.3452C81.971 59.8147 82.6338 61.7639 83.4449 64.1884H84.1818L79.6468 50.6923H79.5072L75.0071 64.1884H75.7048L79.577 52.3188ZM79.2674 60.351H78.6526L79.6773 64.1884H80.2965L79.2674 60.351Z" stroke="#fff" stroke-width="1.01"/>
<path d="M91.6037 50.6923H90.4219V51.2417H91.5688C92.9729 51.2417 94.0296 51.6472 94.7389 52.4583C95.4735 53.3451 95.8512 54.4738 95.7986 55.6241V55.8116C95.8437 56.9531 95.4629 58.0705 94.7302 58.9469C94.018 59.7551 92.9613 60.1592 91.56 60.1592H90.4132V64.184H91.0106V60.7261H91.5949C93.1677 60.7261 94.361 60.2638 95.175 59.3394C96.009 58.364 96.4477 57.1117 96.4047 55.8291V55.6067C96.4421 54.3285 95.9968 53.083 95.1576 52.1182C94.3349 51.1821 93.1473 50.7141 91.5949 50.7141L91.6037 50.6923Z" fill="#fff"/>
<path d="M91.6037 50.6923H90.4219V51.2417H91.5688C92.9729 51.2417 94.0296 51.6472 94.7389 52.4583C95.4735 53.3451 95.8512 54.4738 95.7986 55.6241V55.8116C95.8445 56.9532 95.4636 58.0709 94.7302 58.9469C94.0194 59.758 92.9642 60.1592 91.56 60.1592H90.4132V64.1884H91.0106V60.7261H91.5949C93.1677 60.7261 94.361 60.2638 95.175 59.3394C96.009 58.364 96.4477 57.1117 96.4047 55.8291V55.6067C96.4421 54.3285 95.9968 53.083 95.1576 52.1182C94.3349 51.1821 93.1473 50.7141 91.5949 50.7141L91.6037 50.6923Z" stroke="#fff" stroke-width="1.01"/>
<path d="M107.502 52.3188C107.502 52.3885 107.703 53.0426 108.1 54.2898C108.497 55.5369 108.972 56.8713 109.434 58.3452C109.896 59.819 110.559 61.7639 111.37 64.184H112.107L107.572 50.6923H107.433L102.928 64.184H103.63L107.502 52.3188ZM107.193 60.351H106.574L107.603 64.184H108.222L107.193 60.351Z" fill="#fff"/>
<path d="M107.502 52.3188C107.502 52.3885 107.703 53.0426 108.1 54.2898C108.497 55.5369 108.972 56.8756 109.434 58.3452C109.896 59.8147 110.559 61.7639 111.37 64.1884H112.107L107.572 50.6923H107.433L102.928 64.1884H103.63L107.502 52.3188ZM107.193 60.351H106.574L107.603 64.1884H108.222L107.193 60.351Z" stroke="#fff" stroke-width="1.01"/>
</g>
<defs>
<clipPath id="clip0_48_29">
<rect width="120" height="112.508" fill="white"/>
</clipPath>
</defs>
</svg>
